<?xml version="1.0" standalone="no"?><!DOCTYPE svg PUBLIC "-//W3C//DTD SVG 1.1//EN" "http://www.w3.org/Graphics/SVG/1.1/DTD/svg11.dtd"><svg t="1614156066073" class="icon" viewBox="0 0 1024 1024" version="1.1" xmlns="http://www.w3.org/2000/svg" p-id="2130" width="32" height="32" xmlns:xlink="http://www.w3.org/1999/xlink"><defs><style type="text/css"></style></defs><path d="M510.464 41.984c-258.56 0-468.48 209.92-468.48 468.48s209.92 468.48 468.48 468.48 468.48-209.92 468.48-468.48S768.512 41.984 510.464 41.984z m0 81.92c91.648 0 176.128 32.256 242.688 86.016L209.92 753.152c-53.76-66.56-86.016-151.04-86.016-242.688C123.904 296.96 296.96 123.904 510.464 123.904z m0 773.12c-91.648 0-176.128-32.256-242.688-86.016L811.008 267.776c53.76 66.56 86.016 151.04 86.016 242.688 0 212.992-173.568 386.56-386.56 386.56z" p-id="2131" fill="#cdcdcd"></path></svg>