<?xml version="1.0" encoding="utf-8"?>
<svg version="1.1" xmlns:xlink="http://www.w3.org/1999/xlink" width="68px" height="68px" xmlns="http://www.w3.org/2000/svg">
  <g transform="matrix(1 0 0 1 -153 -161 )">
    <path d="M 51.1770833333333 2.58035714285715  L 64.9895833333333 14.4196428571429  C 65.8159722222222 15.1279761904762  66.5243055555556 16.0892857142857  67.1145833333333 17.3035714285714  C 67.7048611111111 18.5178571428571  68 19.6309523809524  68 20.6428571428571  L 68 64.3571428571429  C 68 65.3690476190476  67.5868055555556 66.2291666666667  66.7604166666667 66.9375  C 65.9340277777778 67.6458333333333  64.9305555555556 68  63.75 68  L 4.25 68  C 3.06944444444444 68  2.06597222222222 67.6458333333333  1.23958333333333 66.9375  C 0.413194444444444 66.2291666666667  0 65.3690476190476  0 64.3571428571429  L 0 3.64285714285715  C 0 2.63095238095238  0.413194444444444 1.77083333333333  1.23958333333333 1.0625  C 2.06597222222222 0.354166666666669  3.06944444444444 0  4.25 0  L 43.9166666666667 0  C 45.0972222222222 0  46.3958333333333 0.252976190476193  47.8125 0.758928571428573  C 49.2291666666667 1.26488095238095  50.3506944444445 1.87202380952381  51.1770833333333 2.58035714285715  Z M 47.1484375 5.99553571428572  C 46.7942708333333 5.69196428571428  46.1892361111111 5.41369047619047  45 5.16071428571428  L 45 20  L 61.9791666666667 20  C 61.6840277777778 18.6949404761905  61.359375 18.1763392857143  61.0052083333333 17.8727678571429  L 47.1484375 5.99553571428572  Z M 6 63  L 62 63  L 62 25  L 43.9166666666667 25  C 42.7361111111111 24.2857142857143  41.7326388888889 23.9315476190476  40.90625 23.2232142857143  C 40.0798611111111 22.514880952381  39.6666666666667 21.6547619047619  39 20.6428571428571  L 39 5  L 6 5  L 6 63  Z M 42.5 34  L 56 46.1428571428571  L 56 58  L 11.3333333333333 58  L 11.3333333333333 51  L 19.8333333333333 43.7142857142857  L 25.5 48.5714285714286  L 42.5 34  Z M 25.8541666666667 36.7321428571429  C 24.2013888888889 38.1488095238095  22.1944444444444 38.8571428571429  19.8333333333333 38.8571428571429  C 17.4722222222222 38.8571428571429  15.4652777777778 38.1488095238095  13.8125 36.7321428571429  C 12.1597222222222 35.3154761904762  11.3333333333333 33.5952380952381  11.3333333333333 31.5714285714286  C 11.3333333333333 29.547619047619  12.1597222222222 27.827380952381  13.8125 26.4107142857143  C 15.4652777777778 24.9940476190476  17.4722222222222 24.2857142857143  19.8333333333333 24.2857142857143  C 22.1944444444444 24.2857142857143  24.2013888888889 24.9940476190476  25.8541666666667 26.4107142857143  C 27.5069444444444 27.827380952381  28.3333333333333 29.547619047619  28.3333333333333 31.5714285714286  C 28.3333333333333 33.5952380952381  27.5069444444444 35.3154761904762  25.8541666666667 36.7321428571429  Z " fill-rule="nonzero" fill="#000000" stroke="none" transform="matrix(1 0 0 1 153 161 )" />
  </g>
</svg>